<svg id="Layer_1" data-name="Layer 1" xmlns="http://www.w3.org/2000/svg" viewBox="0 0 1027.5 256.61"><defs><style>.cls-1{fill:#5a479d;}.cls-2{font-size:160px;}.cls-2,.cls-4,.cls-6{fill:#231f20;}.cls-2,.cls-6{font-family:Helvetica;}.cls-3{fill:none;}.cls-3,.cls-4,.cls-5{stroke:#231f20;stroke-miterlimit:10;stroke-width:3px;}.cls-5{fill:#fff;}.cls-6{font-size:14px;}.cls-7{letter-spacing:-0.07em;}</style></defs><path class="cls-1" d="M-342,99" transform="translate(-70.5 -342.07)"/><text class="cls-2" transform="translate(235.5 179.66)">Bitmagery</text><rect class="cls-3" x="1.5" y="1.5" width="216" height="246.86" rx="16.57"/><rect class="cls-3" x="32.36" y="186.64" width="154.29" height="30.86" rx="6.86"/><rect class="cls-4" x="32.36" y="32.36" width="154.29" height="123.43" rx="7.29"/><path class="cls-5" d="M107.49,487.3l21.22-42.44A6.41,6.41,0,0,1,139,443.2l17.26,17.26a6.41,6.41,0,0,0,10.26-1.67L187.41,417a6.41,6.41,0,0,1,11.06-.69l46.89,70.34a6.4,6.4,0,0,1-5.33,10H113.22A6.41,6.41,0,0,1,107.49,487.3Z" transform="translate(-70.5 -342.07)"/><text class="cls-6" transform="translate(46.5 208)">0<tspan class="cls-7" x="7.79" y="0">1</tspan><tspan x="14.54" y="0">101000 0</tspan><tspan class="cls-7" x="72.93" y="0">1</tspan><tspan x="79.69" y="0">101001</tspan></text></svg>